PathFileType	4	(X/Y/Z)	Patient4_TMGait_0pt4_02_right_01.trc.trc
DataRate	CameraRate	NumFrames	NumMarkers	Units	OrigDataRate	OrigDataStartFrame	OrigNumFrames
71.428571428571	71.428571428571	6	33	mm	71.428571428571	1	       141
Frame#	Time	Sacral			L.Shoulder			Chest			R.Shoulder			Neck			R.ASIS			L.ASIS			R.Thigh.Superior			R.Thigh.Lateral			R.Thigh.Inferior			R.Patella			L.Thigh.Superior			L.Thigh.Lateral			L.Thigh.Inferior			L.Patella			L.Shank.Superior			L.Shank.Lateral			L.Shank.Inferior			R.Shank.Superior			R.Shank.Lateral			R.Shank.Inferior			R.Heel			R.Midfoot.Superior			R.Midfoot.Lateral			R.Toe			L.Heel			L.Midfoot.Lateral			L.Midfoot.Superior			L.Toe			L.Elbow			L.Wrist			R.Elbow			R.Wrist			
		X1	Y1	Z1	X2	Y2	Z2	X3	Y3	Z3	X4	Y4	Z4	X5	Y5	Z5	X6	Y6	Z6	X7	Y7	Z7	X8	Y8	Z8	X9	Y9	Z9	X10	Y10	Z10	X11	Y11	Z11	X12	Y12	Z12	X13	Y13	Z13	X14	Y14	Z14	X15	Y15	Z15	X16	Y16	Z16	X17	Y17	Z17	X18	Y18	Z18	X19	Y19	Z19	X20	Y20	Z20	X21	Y21	Z21	X22	Y22	Z22	X23	Y23	Z23	X24	Y24	Z24	X25	Y25	Z25	X26	Y26	Z26	X27	Y27	Z27	X28	Y28	Z28	X29	Y29	Z29	X30	Y30	Z30	X31	Y31	Z31	X32	Y32	Z32	X33	Y33	Z33	

1	0.490000000000	878.495563886759	1005.050044981333	419.680375106757	1059.653982373902	1436.517930084103	232.570694638043	1156.092850224446	1373.231928594503	399.221089049787	1063.318661960567	1445.660716204112	568.799522875925	1035.993738585072	1500.115320912368	388.215078184140	1106.988233020187	955.625198519642	543.428473322714	1099.510627929103	964.899836780848	268.830440551372	1191.084518125660	780.472734062559	519.590340917198	1148.954204452082	659.498953010559	594.072498457159	1239.970252043236	619.032181699930	518.420372909923	1258.981127705579	509.997208926309	543.210077818993	1154.298754640297	754.739940188953	298.733376448081	1068.365463990963	636.349685159289	240.771102861610	1155.089045070145	562.181824163372	304.119187350368	1156.588067281338	493.209231614129	315.136711713951	1131.807311575361	419.266607674776	307.918271359572	1043.632935460928	302.728638663973	260.177696895313	1097.456377264939	193.830684158387	332.566655241875	1189.470565849351	430.661042388699	553.222910395177	1072.984028709696	381.630303523428	618.135337855026	1068.161426827840	269.566249550085	572.216980286598	873.341605556950	185.975903532974	551.191823022496	1047.748613169578	145.459943386022	586.486684165853	940.027422051453	133.540188015285	624.198986177843	1126.378321843304	42.512591740012	614.781915507529	971.704377115984	38.438003249696	380.667471506359	1041.266510283020	35.124534880541	295.943104281877	1124.997979204206	96.888410030132	319.522140352880	1252.317897794017	47.235541960676	284.351624696695	1086.694650740140	1093.665172074655	92.969807496801	1238.828459921727	878.243939419897	99.725377238421	1005.891121568714	1103.131886234475	691.647537121995	1076.197825463368	850.692339579989	700.905159380310	
2	0.504000000000	877.169904830413	1005.723124753084	417.331724733121	1061.827765525322	1437.180119311557	231.929062789513	1155.743017376223	1373.579589057945	399.773174050101	1060.866896410986	1446.185834911809	568.036021333332	1035.952982163179	1500.642920075709	387.487669396335	1104.554266172515	956.593045328652	543.366627677485	1099.415607552101	965.264821299815	268.769361674708	1189.849275079064	782.739078946182	519.469117954602	1149.074788742396	661.611338487426	594.260235100646	1239.500554782890	621.480464919132	518.007695769561	1260.706434434423	514.441337790393	543.289209768725	1151.796051535983	754.200034480398	299.665204145011	1065.221452970434	636.533721950910	240.285924439717	1150.520760621219	561.623974028330	304.399976627270	1151.212644819264	492.825613571563	315.371711063973	1126.443293585479	419.060610170556	307.892949955568	1038.261990255021	302.634580123642	259.890882868809	1091.630211286299	193.731709119106	332.562010072823	1195.237117992228	433.087984686571	553.636984459472	1082.817607184115	377.578387811371	618.935238071879	1084.570567414928	265.829929124966	573.045349649341	896.057254168066	171.295427266832	552.459680586997	1071.623847217065	141.081883494512	587.459537156804	965.502772150921	123.093568215761	625.426979295897	1155.774613082043	43.328357691996	615.709722568371	965.694484244814	38.423883315013	380.663657773676	1035.284901754546	35.077753880756	295.944842649641	1119.033345590258	96.887714391926	319.531879127039	1246.381770232412	47.217772577516	284.397774087565	1092.898369936011	1095.854266206899	90.487084326101	1252.291613202335	886.246171671645	98.972388358738	994.324392373194	1105.547945021581	689.478793514800	1054.547097096882	851.318658163481	700.111766212625	
3	0.518000000000	875.863849886828	1006.370726641014	415.023548307152	1063.992832996821	1437.786852393076	231.326125164569	1155.408527985435	1373.885313208114	400.349341520784	1058.458992940396	1446.685202629684	567.297399484676	1035.927662408639	1501.132147838976	386.784910357516	1102.136728758101	957.478648828018	543.335365241681	1099.321388212535	965.604191589486	268.726225093681	1188.469653377395	784.780106413752	519.402113550730	1148.890999157616	663.553414691944	594.508627910481	1238.742845685274	623.678110479646	517.717732963240	1262.053080691359	518.710337520157	543.443362267331	1149.289760762437	753.649504185816	300.563500999746	1062.093165089255	636.709837152084	239.781956640957	1145.972711502773	561.064969100410	304.654362960945	1145.865102555570	492.442165910970	315.574154452526	1121.106403228236	418.849079925908	307.846230639470	1032.913917661110	302.535639269088	259.590107951792	1085.815632780383	193.626885123282	332.547971382571	1200.774197319907	435.443023588746	554.098104306673	1092.661587409406	373.424258569641	619.816856327218	1101.091882325698	262.153185869304	573.909702110225	919.217892204177	156.700678182053	553.770580073833	1095.824862431117	136.839360923643	588.470207224162	991.393232850493	112.755037848917	626.651009651117	1185.428511735193	44.322890831078	616.549269021777	959.706716900511	38.409618447547	380.658190210462	1029.321545434277	35.031193303929	295.943760284996	1113.086533170013	96.883937625275	319.539171229245	1240.462662684359	47.196819157581	284.441178532039	1099.040067127833	1097.999144365454	88.044517602740	1265.640568497065	894.279017275342	98.285898945672	982.868188895238	1107.996213810855	687.329227953810	1033.228989098763	852.074025276824	699.249866387331	
4	0.532000000000	874.609653648205	1006.963569167958	412.818140593414	1066.112690574058	1438.289888096084	230.803694298863	1155.102216740428	1374.114727053049	400.965665573405	1056.154717038511	1447.133657994421	566.617941267774	1035.926442895285	1501.548361031517	386.139264057462	1099.778281717753	958.210097915556	543.364756568439	1099.236742553469	965.898049626427	268.720904680489	1186.832566757970	786.390081683581	519.445591699364	1148.156532960313	665.164211974821	594.864552710962	1237.468941865340	625.403624636980	517.640124379009	1262.701792433425	522.625002020621	543.712735056940	1146.799740735679	753.083621292052	301.407707292148	1059.017179684636	636.870795000545	239.261073634099	1141.490792273093	560.506739915179	304.871515291723	1140.600371986856	492.060701572523	315.727199194269	1115.849948871700	418.629843886587	307.769729354655	1027.636629050523	302.430770154462	259.270459770969	1080.058390387047	193.513129410424	332.518687315503	1205.828387533093	437.654102882337	554.636121802704	1102.395211042503	369.164446950899	620.820664589520	1117.612812980912	258.667148114776	574.825835428007	942.916574657374	142.469531300800	555.128725437372	1120.317986502781	132.950780871071	589.522898617101	1017.731065108624	102.783874008954	627.844485475602	1215.195164660814	45.724710706913	617.232313685028	953.791390323178	38.396022963530	380.649626962308	1023.423778758673	34.985700432581	295.937964920734	1107.204730917941	96.874581370473	319.542529640425	1234.606941698591	47.168802272009	284.479503095792	1105.020784583362	1100.042372123953	85.718260068976	1278.666592350680	902.303446877902	97.736266742073	971.736056400269	1110.469631552327	685.235289361191	1012.728872337431	853.035837133100	698.276923946202	
5	0.546000000000	873.434027629509	1007.478531462422	410.767777596062	1068.154798017361	1438.651505924978	230.397357144269	1154.833873829133	1374.241145513937	401.636213785887	1054.003394421131	1447.511273225495	566.028525611072	1035.955688547681	1501.864234115900	385.579268592150	1097.514083462902	958.728692322904	543.480338428136	1099.172625618616	966.133573307961	268.769748682109	1184.834155797838	787.395685976010	519.651626375967	1146.656044077146	666.308627152709	595.369209295970	1235.485853738051	626.474926540240	517.847748498245	1262.388056464297	526.038361126063	544.118289237692	1144.344889319103	752.498670628987	302.186229901909	1056.017566947826	637.011158469721	238.730308887972	1137.102617781347	559.948961914301	305.048854430857	1135.450311850404	491.681247969018	315.824533681158	1110.703004770859	418.400268821994	307.662470319194	1022.454626447165	302.319831285998	258.931182754054	1074.378809583489	193.386768558592	332.472246375992	1210.187342611292	439.675776072684	555.271892073453	1111.922851532831	364.818478111356	621.972487279006	1134.044117519649	255.515377156337	575.802733386303	967.250020911768	128.874911143607	556.531167037651	1145.088556226860	129.647825783977	590.619007113495	1044.560538839982	93.441927730056	628.980468803850	1244.966723999049	47.780393424277	617.699193021330	947.970285104508	38.383827978540	380.636513583011	1017.611191795894	34.941768200214	295.926674446640	1101.407934128961	96.857261112832	319.541387688231	1228.833539262006	47.128968089601	284.511597180235	1110.775159417161	1101.938407323826	83.578535804383	1291.222463765382	910.303370213625	97.386680383904	961.097361062893	1112.961074324122	683.223057028304	993.418369451748	854.254129587172	697.159890134729	
6	0.560000000000	872.358676317985	1007.899411151608	408.914349045542	1070.089051439121	1438.848738310776	230.133781384804	1154.609054640217	1374.248972077704	402.370550013864	1052.042159413537	1447.804982225325	565.555270493801	1036.017729914426	1502.062420051600	385.128423933783	1095.373456938741	958.995731380995	543.700770813484	1099.140096223614	966.304921176991	268.885391891074	1182.398273862156	787.676298734782	520.062381702395	1144.238273686111	666.891876149498	596.051332577387	1232.666571405317	626.771404578463	518.384992118464	1260.938560098936	528.847004802398	544.656797048094	1141.946773708963	751.893637791555	302.898303951560	1053.108652142907	637.127844294043	238.203467699606	1132.821850379265	559.390015921078	305.193291402918	1130.428839899500	491.302688908786	315.871878334075	1105.675762793528	418.158214428404	307.531967429503	1017.374522938475	302.204233480177	258.576592058438	1068.779686472481	193.244567822987	332.410917326236	1213.694756170077	441.489613618946	556.013021834901	1121.157179403132	360.438621997923	623.274944126278	1150.284241615662	252.843652752755	576.838435036199	992.237182826152	116.183742200475	557.961908549408	1170.071235692817	127.154946541763	591.751828898921	1071.856304798924	84.984247249604	630.030995548932	1274.603223757818	50.722169522033	617.907642227860	942.243741303129	38.373634588611	380.617752006701	1011.883263150901	34.899621943892	295.910236071007	1095.696499702104	96.830085269438	319.536145573182	1223.141799631557	47.072375693703	284.537325473151	1116.266529780194	1103.654790409957	81.688350478599	1303.212555733171	918.270723270387	97.287423243007	951.082357627065	1115.456073936420	681.309381242159	975.557659752954	855.740801882459	695.882654202974	
